<?xml version="1.0" encoding="utf-8"?>
<!-- Generator: Adobe Illustrator 25.4.1, SVG Export Plug-In . SVG Version: 6.00 Build 0)  -->
<svg version="1.1" id="Layer_1" xmlns="http://www.w3.org/2000/svg" xmlns:xlink="http://www.w3.org/1999/xlink" x="0px" y="0px"
	 viewBox="0 0 125.5 126" style="enable-background:new 0 0 125.5 126;" xml:space="preserve">
<style type="text/css">
	.st0{fill:#FFFFFF;}
</style>
<g id="레이어_2">
	<g>
		<path class="st0" d="M25.1,104.9v-5.4c-3.7-1.2-7.3-2.8-10.8-4.8C9,91.7,4.1,87.7,0,83.1c3.6,10.1,9.6,19.1,17.6,26.2
			c3-0.3,6-0.7,9-1.2C25.6,107.4,25.1,106.2,25.1,104.9z"/>
		<path class="st0" d="M117.8,30.8C109.9,16.2,96.8,5.2,81.1,0c8.1,6.9,14.2,16,17.6,26.1c4.3,10.9,6.5,22.6,6.4,34.3
			c0,0.7,0,1.4,0,2.2c-0.3,11.8-2.8,23.5-7.4,34.4v7.9c0,2.4-2,4.4-4.4,4.4h-1.8c-2.8,4.7-6,9.1-9.6,13.2
			c33.8-11.6,51.8-48.4,40.2-82.1C120.9,37.1,119.5,33.9,117.8,30.8L117.8,30.8z"/>
		<path class="st0" d="M39.9,109.3C34,111,28.1,112.2,22,113c14.9,11.2,34,15.5,52.3,11.6c4.7-4.6,8.8-9.7,12.3-15.3
			C86.6,109.3,39.9,109.3,39.9,109.3z"/>
		<path class="st0" d="M100.8,53.8c-0.7,4.5-2,9-3.8,13.2c0.5,0.7,0.8,1.6,0.8,2.5v15.3c2-7.2,3.1-14.7,3.3-22.2c0-0.8,0-1.5,0-2.1
			C101,58.2,100.9,56,100.8,53.8z"/>
		<path class="st0" d="M29.5,102.1h1.8c1.1,0,1.9,0.3,1.9,1.2c0,0.5-0.3,0.9-0.7,1l0,0c0.6,0.1,1,0.5,1,1.1c0,1-0.9,1.4-2,1.4h-1.9
			v-4.7H29.5z M31.1,104c0.7,0,1-0.2,1-0.6s-0.3-0.6-0.9-0.6h-0.6v1.2H31.1z M31.3,106.1c0.7,0,1.1-0.2,1.1-0.7s-0.4-0.7-1.1-0.7
			h-0.7v1.4C30.6,106.1,31.3,106.1,31.3,106.1z"/>
		<path class="st0" d="M35.2,102.1H37c1.1,0,2,0.3,2,1.4c0,0.6-0.4,1.2-1,1.4l1.2,1.9H38l-1-1.8h-0.7v1.8h-1.1V102.1z M36.9,104.3
			c0.7,0,1.1-0.3,1.1-0.8s-0.4-0.7-1.1-0.7h-0.7v1.4L36.9,104.3z"/>
		<path class="st0" d="M40.9,102.1h3.2v0.8H42v1.2h1.8v0.8H42v1.2h2.3v0.8h-3.4C40.9,106.9,40.9,102.1,40.9,102.1z"/>
		<path class="st0" d="M45.6,102.1h1.1l0.4,2.3l0.2,1.5l0,0c0.1-0.5,0.2-1,0.3-1.5l0.6-2.3h0.9l0.6,2.3c0.1,0.5,0.2,1,0.3,1.5l0,0
			c0.1-0.5,0.2-1,0.2-1.5l0.4-2.3h1l-1,4.8h-1.2l-0.6-2.3c-0.1-0.4-0.2-0.7-0.2-1.1l0,0c-0.1,0.4-0.2,0.7-0.2,1.1l-0.6,2.3h-1.3
			L45.6,102.1z"/>
		<path class="st0" d="M55.7,104.5c-0.1-1.3,1-2.4,2.3-2.5c0.1,0,0.1,0,0.2,0c0.6,0,1.1,0.2,1.5,0.6l-0.5,0.6c-0.6-0.5-1.5-0.5-2,0
			c-0.3,0.3-0.4,0.8-0.4,1.2c0,1,0.5,1.7,1.4,1.7c0.4,0,0.8-0.2,1.1-0.5l0.6,0.6c-0.4,0.5-1,0.7-1.7,0.7c-1.3,0.1-2.3-0.9-2.4-2.1
			C55.7,104.7,55.7,104.6,55.7,104.5z"/>
		<path class="st0" d="M61,104.4c0-1.3,1.1-2.4,2.4-2.4s2.4,1.1,2.4,2.4s-1.1,2.4-2.4,2.4S61,105.7,61,104.4z M64.6,104.4
			c0-1-0.5-1.6-1.3-1.6s-1.3,0.6-1.3,1.6s0.5,1.7,1.3,1.7S64.6,105.4,64.6,104.4L64.6,104.4z"/>
		<path class="st0" d="M67.6,102.1h1.2l0.9,2.2c0.1,0.3,0.2,0.6,0.3,0.9l0,0c0.1-0.3,0.2-0.6,0.3-0.9l0.9-2.2h1.2v4.8h-1v-2
			c0-0.4,0.1-1.1,0.1-1.6l0,0l-0.4,1.1l-0.8,2h-0.6l-0.8-2l-0.4-1.1l0,0c0,0.4,0.1,1.1,0.1,1.6v2h-1L67.6,102.1z"/>
		<path class="st0" d="M74.5,102.1h1.7c1.2,0,2.1,0.4,2.1,1.5s-0.9,1.6-2,1.6h-0.7v1.7h-1.1V102.1z M76.2,104.4
			c0.7,0,1.1-0.3,1.1-0.8s-0.4-0.7-1.1-0.7h-0.6v1.6L76.2,104.4L76.2,104.4z"/>
		<path class="st0" d="M80.8,102.1H82l1.7,4.8h-1.1l-0.4-1.2h-1.7l-0.4,1.2H79L80.8,102.1z M80.8,104.8H82l-0.2-0.5
			c-0.2-0.5-0.3-1-0.4-1.6l0,0c-0.1,0.5-0.3,1.1-0.4,1.6L80.8,104.8z"/>
		<path class="st0" d="M85.2,102.1h1.1l1.5,2.5l0.5,1l0,0c0-0.5-0.1-1.1-0.1-1.7V102h1v4.8h-1l-1.5-2.5l-0.5-1l0,0
			c0,0.5,0.1,1.1,0.1,1.7v1.9h-1L85.2,102.1z"/>
		<path class="st0" d="M92.3,105.1l-1.6-3h1.1l0.5,1.2c0.2,0.3,0.3,0.7,0.5,1l0,0c0.2-0.4,0.3-0.7,0.5-1l0.5-1.2h1.1l-1.6,3v1.7h-1
			V105.1z"/>
		<path class="st0" d="M39.4,9.3c-1.2,0-2.2,1.4-2.2,3.2L34.8,56l-7,10.8v29.3c0,1.8,1,3.2,2.1,3.2h11.6v-4.5h-8
			c-0.6,0-1.1-0.7-1.1-1.6v-25l7-10.8l0,0l2.4-42c0-0.9,0.5-1.6,1.1-1.6h0.8V9.3H39.4z"/>
		<path class="st0" d="M47.8,99.3h9.4c1.2,0,2.2-1.4,2.2-3.2V68.2h-4.5v24.9c0,0.9-0.5,1.6-1.1,1.6h-2.4c-0.6,0-1.1-0.7-1.1-1.6
			V68.2h-4.6v27.9C45.7,97.9,46.6,99.3,47.8,99.3z"/>
		<path class="st0" d="M75,68.2h-9.4c-1.2,0-2.2,1.4-2.2,3.2v27.9H68V74.4c0-0.9,0.5-1.6,1.1-1.6h2.4c0.6,0,1.1,0.7,1.1,1.6v24.9
			h4.6V71.4C77.1,69.7,76.2,68.2,75,68.2z"/>
		<path class="st0" d="M92.8,68.2h-9.4c-1.2,0-2.2,1.4-2.2,3.2v27.9h4.6v-7.7h4.6v7.7H95V71.4C94.9,69.7,93.9,68.2,92.8,68.2z
			 M85.8,87V74.4c0-0.9,0.5-1.6,1.1-1.6h2.4c0.6,0,1.1,0.7,1.1,1.6V87H85.8z"/>
	</g>
</g>
</svg>
