<?xml version="1.0" encoding="utf-8"?>
<!-- Generator: Adobe Illustrator 25.4.1, SVG Export Plug-In . SVG Version: 6.00 Build 0)  -->
<svg version="1.1" id="Layer_1" xmlns="http://www.w3.org/2000/svg" xmlns:xlink="http://www.w3.org/1999/xlink" x="0px" y="0px"
	 viewBox="0 0 1004.7 420.7" style="enable-background:new 0 0 1004.7 420.7;" xml:space="preserve">
<style type="text/css">
	.st0{fill:#E6E6E6;}
	.st1{fill:#FFFFFF;}
	.st2{fill:#3F3D56;}
	.st3{fill:#CCCCCC;}
</style>
<path class="st0" d="M85.2,330.6l-13.1-76.3c-5.8-33.9,19.3-65.3,53.6-67.1l186.4-9.7l44.5-73.3c5.9-9.7,16.4-15.7,27.8-15.7h134
	c10.5,0,19.4,7.8,20.8,18.3l3.4,58.7l334,1l42,138.5l-39-1.9l2,42l-51,2l-17-48.1c-3.2-9.1-17.2-19.3-31.8-27.8
	c-32.7-19.1-74.7-13-99.4,15.7c-5.8,6.8-9.9,13.8-11.1,20.4l-7.7,44.7l-374-6l-49-68.6c-14.5-15.8-82.8-21.5-89,0l-37,54.6
	L85.2,330.6L85.2,330.6z"/>
<path class="st1" d="M491.7,133.2l11,51.9l-140,3l29.6-63.5c2.7-5.8,8.6-9.3,14.9-9.1l67.1,2.9C482.7,118.9,489.9,124.9,491.7,133.2
	L491.7,133.2z"/>
<polygon class="st1" points="343.7,184.1 371.7,112.1 364.4,104.8 318.7,174.1 328,188.1 "/>
<circle class="st2" cx="744.7" cy="352.1" r="66"/>
<path class="st1" d="M699.2,352.1c0-25.1,20.4-45.5,45.5-45.5s45.5,20.4,45.5,45.5s-20.4,45.5-45.5,45.5S699.2,377.2,699.2,352.1z
	 M700.2,352.1c0,24.5,20,44.5,44.5,44.5s44.5-20,44.5-44.5s-20-44.5-44.5-44.5S700.2,327.6,700.2,352.1z"/>
<path class="st0" d="M705.7,352.1c0,21.5,17.5,39,39,39s39-17.5,39-39s-17.5-39-39-39S705.7,330.6,705.7,352.1z M770,342.8l-6.9,4.5
	l-2.7-4.1L770,342.8z M759.5,365.7l1.8-4.5l5.8,7.6L759.5,365.7z M741.8,381.1l4.9-8.2v8.2H741.8z M741.8,333.4l4.9-8.2v8.2H741.8z
	 M720.2,368.8l5.8-7.6l1.8,4.5L720.2,368.8z M717.3,342.8l9.6,0.4l-2.7,4.1L717.3,342.8z"/>
<circle class="st2" cx="190.7" cy="352.1" r="66"/>
<path class="st1" d="M145.2,352.1c0-25.1,20.4-45.5,45.5-45.5s45.5,20.4,45.5,45.5s-20.4,45.5-45.5,45.5S145.2,377.2,145.2,352.1z
	 M146.2,352.1c0,24.5,20,44.5,44.5,44.5s44.5-20,44.5-44.5s-20-44.5-44.5-44.5S146.2,327.6,146.2,352.1z"/>
<path class="st0" d="M151.7,352.1c0,21.5,17.5,39,39,39s39-17.5,39-39s-17.5-39-39-39S151.7,330.6,151.7,352.1z M216,342.8l-6.9,4.5
	l-2.7-4.1L216,342.8z M205.5,365.7l1.8-4.5l5.8,7.6L205.5,365.7z M187.8,381.1l4.9-8.2v8.2H187.8z M187.8,333.4l4.9-8.2v8.2H187.8z
	 M166.2,368.8l5.8-7.6l1.8,4.5L166.2,368.8z M163.3,342.8l9.6,0.4l-2.7,4.1L163.3,342.8z"/>
<rect x="466.2" y="203.6" class="st2" width="38" height="8"/>
<path class="st3" d="M0,418.5c0,0.7,0.9,1.2,2.1,1.2h991.8c1.2,0,2.1-0.5,2.1-1.2c0-0.7-0.9-1.2-2.1-1.2H2.1
	C0.9,417.3,0,417.8,0,418.5z"/>
<ellipse class="st0" cx="75.7" cy="286" rx="27" ry="23.5"/>
</svg>
